<svg width="24" height="25" viewBox="0 0 24 25" fill="none" xmlns="http://www.w3.org/2000/svg">
    <path fill-rule="evenodd" clip-rule="evenodd" d="M15.4879 5.00143C15.3368 4.87222 15.1406 4.80828 14.9424 4.82366C14.7442 4.83904 14.5602 4.93247 14.4309 5.08343L8.43089 12.0834C8.31442 12.2193 8.25041 12.3924 8.25041 12.5714C8.25041 12.7504 8.31442 12.9235 8.43089 13.0594L14.4309 20.0594C14.5624 20.203 14.7445 20.2898 14.9389 20.3016C15.1332 20.3133 15.3245 20.249 15.4723 20.1222C15.62 19.9955 15.7128 19.8162 15.7308 19.6224C15.7488 19.4285 15.6908 19.2353 15.5689 19.0834L9.98789 12.5714L15.5689 6.05943C15.6983 5.9086 15.7626 5.71257 15.7476 5.51438C15.7326 5.31619 15.6396 5.13206 15.4889 5.00243" fill="black"/>
</svg>
