<svg xmlns="http://www.w3.org/2000/svg" width="32" height="36" viewBox="0 0 32 36" fill="none">
    <path fill-rule="evenodd" clip-rule="evenodd" d="M2 36C0.89543 36 0 35.5523 0 35L0 31C0 30.4477 0.89543 30 2 30C3.10457 30 4 30.4477 4 31V35C4 35.5523 3.10457 36 2 36Z" fill="#518756"/>
    <path opacity="0.6" fill-rule="evenodd" clip-rule="evenodd" d="M9 36C7.89543 36 7 35.3732 7 34.6L7 23.4C7 22.6268 7.89543 22 9 22C10.1046 22 11 22.6268 11 23.4V34.6C11 35.3732 10.1046 36 9 36Z" fill="#CECECE"/>
    <path opacity="0.6" fill-rule="evenodd" clip-rule="evenodd" d="M16 36C14.8954 36 14 35.2964 14 34.4286L14 15.5714C14 14.7036 14.8954 14 16 14C17.1046 14 18 14.7036 18 15.5714V34.4286C18 35.2964 17.1046 36 16 36Z" fill="#CECECE"/>
    <path opacity="0.6" fill-rule="evenodd" clip-rule="evenodd" d="M23 36C21.8954 36 21 35.3036 21 34.4444V9.55556C21 8.69645 21.8954 8 23 8C24.1046 8 25 8.69645 25 9.55556V34.4444C25 35.3036 24.1046 36 23 36Z" fill="#CECECE"/>
    <path opacity="0.6" fill-rule="evenodd" clip-rule="evenodd" d="M30 36C28.8954 36 28 35.2674 28 34.3636L28 1.63636C28 0.732628 28.8954 0 30 0C31.1046 0 32 0.732628 32 1.63636V34.3636C32 35.2674 31.1046 36 30 36Z" fill="#CECECE"/>
</svg>