<svg width="4" height="12" viewBox="0 0 4 12" fill="none" xmlns="http://www.w3.org/2000/svg">
<path d="M3.16659 10.0833C3.16659 9.439 2.64425 8.91667 1.99992 8.91667C1.35559 8.91667 0.833252 9.439 0.833252 10.0833C0.833252 10.7277 1.35559 11.25 1.99992 11.25C2.64425 11.25 3.16659 10.7277 3.16659 10.0833Z" fill="#212529"/>
<path d="M3.16659 5.99999C3.16659 5.35566 2.64425 4.83332 1.99992 4.83332C1.35559 4.83332 0.833252 5.35566 0.833252 5.99999C0.833252 6.64432 1.35559 7.16666 1.99992 7.16666C2.64425 7.16666 3.16659 6.64432 3.16659 5.99999Z" fill="#212529"/>
<path d="M3.16659 1.91668C3.16659 1.27234 2.64425 0.75001 1.99992 0.75001C1.35559 0.75001 0.833252 1.27234 0.833252 1.91668C0.833252 2.56101 1.35559 3.08334 1.99992 3.08334C2.64425 3.08334 3.16659 2.56101 3.16659 1.91668Z" fill="#212529"/>
</svg>
